<?xml version="1.0" encoding="utf-8"?>
<svg xmlns="http://www.w3.org/2000/svg" fill="none" height="32" viewBox="0 0 113 32" width="113">
  <path d="M38.765 17.762c-.956-.529-1.459-.956-1.459-1.56 0-.78.68-1.258 1.761-1.258 1.258 0 2.365.528 2.365.528l.88-2.691s-.805-.63-3.195-.63c-3.32 0-5.634 1.913-5.634 4.58 0 1.509 1.081 2.666 2.515 3.496 1.157.654 1.56 1.132 1.56 1.811 0 .73-.579 1.308-1.66 1.308-1.61 0-3.12-.83-3.12-.83l-.93 2.692s1.408.93 3.748.93c3.42 0 5.86-1.685 5.86-4.704.051-1.66-1.207-2.817-2.69-3.672ZM52.4 12.102c-1.686 0-2.994.805-4.025 2.012l-.05-.025 1.458-7.647H45.96l-3.698 19.445h3.798l1.258-6.641c.503-2.516 1.786-4.05 2.994-4.05.855 0 1.182.579 1.182 1.409 0 .528-.05 1.157-.176 1.685l-1.434 7.622h3.799l1.484-7.848c.176-.83.277-1.812.277-2.49.05-2.19-1.057-3.472-3.044-3.472ZM64.097 12.102c-4.578 0-7.622 4.125-7.622 8.729 0 2.943 1.811 5.333 5.232 5.333 4.503 0 7.522-4.025 7.522-8.73.025-2.741-1.56-5.332-5.132-5.332ZM62.236 23.22c-1.308 0-1.837-1.107-1.837-2.491 0-2.189 1.132-5.736 3.195-5.736 1.358 0 1.786 1.158 1.786 2.29 0 2.364-1.132 5.937-3.144 5.937ZM78.99 12.102c-2.566 0-4.025 2.264-4.025 2.264h-.05l.226-2.038H71.77c-.176 1.383-.478 3.472-.78 5.056L68.349 31.27h3.798l1.057-5.635h.075s.78.503 2.239.503c4.478 0 7.396-4.578 7.396-9.207 0-2.54-1.132-4.83-3.924-4.83Zm-3.623 11.194c-.981 0-1.56-.553-1.56-.553l.63-3.547c.452-2.365 1.685-3.95 2.993-3.95 1.157 0 1.51 1.082 1.51 2.088 0 2.44-1.46 5.962-3.573 5.962ZM88.347 6.643c-1.207 0-2.188.956-2.188 2.214 0 1.132.704 1.911 1.786 1.911h.05c1.183 0 2.214-.805 2.24-2.213.024-1.132-.73-1.912-1.888-1.912ZM83.014 25.887h3.824l2.591-13.483H85.58l-2.566 13.483ZM99.089 12.378h-2.641l.126-.629c.226-1.308.98-2.465 2.264-2.465.679 0 1.207.201 1.207.201l.755-2.968s-.654-.327-2.063-.327c-1.359 0-2.692.377-3.723 1.258-1.308 1.107-1.912 2.691-2.214 4.301l-.1.63h-1.761l-.554 2.867h1.761l-2.013 10.641h3.8l2.012-10.64h2.616l.528-2.869ZM108.246 12.404s-2.39 5.987-3.447 9.257h-.05c-.075-1.057-.931-9.257-.931-9.257h-4l2.29 12.376c.05.277.025.453-.076.63a6.599 6.599 0 0 1-2.063 2.288c-.704.529-1.509.856-2.138 1.082L98.888 32c.78-.176 2.364-.805 3.723-2.063 1.736-1.635 3.346-4.125 4.981-7.547l4.654-9.986h-4ZM18.741 3.65s-.352.1-.93.276a7.376 7.376 0 0 0-.453-1.107C16.703 1.561 15.722.882 14.565.882c-.075 0-.15 0-.251.025-.025-.05-.076-.075-.1-.125-.504-.554-1.158-.805-1.938-.78-1.51.05-3.019 1.132-4.226 3.069-.855 1.358-1.51 3.069-1.686 4.402-1.735.528-2.943.906-2.968.93-.88.277-.906.303-1.006 1.133C2.314 10.165 0 27.874 0 27.874l19.018 3.296V3.624c-.151 0-.227.025-.277.025ZM14.34 5.007c-1.006.302-2.113.654-3.195.98.302-1.182.906-2.364 1.61-3.144.277-.276.654-.603 1.082-.805.427.906.528 2.139.503 2.969Zm-2.063-3.975c.352 0 .654.076.906.227-.403.2-.805.528-1.183.905-.956 1.032-1.685 2.641-1.987 4.176l-2.641.805c.553-2.415 2.59-6.063 4.905-6.113ZM9.358 14.87c.1 1.61 4.352 1.962 4.603 5.76.177 2.994-1.584 5.032-4.125 5.183-3.07.2-4.755-1.61-4.755-1.61l.655-2.768s1.685 1.284 3.043 1.183c.88-.05 1.208-.78 1.183-1.283-.126-2.113-3.598-1.987-3.824-5.459-.201-2.918 1.71-5.861 5.937-6.138 1.635-.1 2.465.302 2.465.302l-.956 3.622s-1.082-.503-2.364-.402c-1.862.126-1.887 1.308-1.862 1.61Zm5.987-10.163c0-.755-.1-1.837-.453-2.742 1.157.226 1.71 1.51 1.962 2.29-.452.125-.955.276-1.509.452ZM19.596 31.12l7.9-1.963S24.098 6.19 24.073 6.04a.293.293 0 0 0-.277-.251c-.125 0-2.339-.05-2.339-.05S20.1 4.428 19.596 3.925v27.193Z" fill="#262D3D"/>
</svg>