<?xml version="1.0" encoding="utf-8"?>
<svg xmlns="http://www.w3.org/2000/svg" id="Camada_1" viewBox="0 0 134 26">
  <defs>
    <style>.cls-1{fill:#262d3d;fill-rule:evenodd;stroke-width:0px;}</style>
  </defs>
  <path class="cls-1" d="m68.38.43h6.47l3.05,13.26h.14l3.13-13.26h6.29v18.17h-3.85V4.88h-.17l-3.39,13.72h-4.32l-3.31-13.72h-.18v13.72h-3.85V.43ZM0,.43h12.03v3.39h-7.94v3.77h7.58v3.29h-7.58v4.34h7.94v3.39H0V.43Zm17.53,18.17l4.12-5.27,2.57,2.59-5.89,7.33h4.6l3.77-4.86,7.09,7.18h5.56l-10.19-10.19,8.03-10.09h-4.61l-5.93,7.57-2.57-2.56,6.6-8.27h-4.59l-4.5,5.77-2.45-2.51h-5.48l5.52,5.54-6.24,7.77h4.59Zm92.55,0l.04-1.02c.28.21,1.5,1.33,4.07,1.33,3.37,0,6.51-3.01,6.51-6.96s-2.94-6.97-6.46-6.97c-2.69,0-3.92,1.23-4.11,1.36V.43h-3.8v18.17h3.76Zm6.6-6.66c0,1.88-1.45,3.34-3.34,3.34s-3.36-1.45-3.36-3.33,1.46-3.33,3.36-3.33,3.34,1.45,3.34,3.32ZM130.03.43h3.97v18.17h-3.97V.43Zm-7.03,3.39h3.97V.43h-3.97v3.39Zm0,1.48h3.97v13.31h-3.97V5.29Zm-87,6.66c0,3.84,3.09,6.96,7.14,6.96s7.14-3.12,7.14-6.96-3.09-6.96-7.14-6.96-7.14,3.13-7.14,6.96Zm3.86,0c0-1.84,1.38-3.35,3.3-3.35s3.3,1.51,3.3,3.35-1.38,3.35-3.3,3.35-3.3-1.51-3.3-3.35Zm49.87,0c0,3.84,3.09,6.96,7.14,6.96s7.14-3.12,7.14-6.96-3.09-6.96-7.14-6.96-7.14,3.13-7.14,6.96Zm3.86,0c0-1.84,1.38-3.35,3.3-3.35s3.3,1.51,3.3,3.35-1.38,3.35-3.3,3.35-3.3-1.51-3.3-3.35Zm-41.13-6.65h3.71v1.26c.4-.35,1.68-1.57,4.05-1.57,2.79,0,5.01,2.05,5.01,5.27v8.35h-3.91v-7.32c0-1.79-.88-2.86-2.47-2.86s-2.47,1-2.47,2.86v7.32h-3.91V5.29Z" id="Fill-1"/>
</svg>