<?xml version="1.0" encoding="utf-8"?>
<svg xmlns="http://www.w3.org/2000/svg" fill="none" height="40" viewBox="0 0 180 40" width="180">
<path d="M21.8726 21.4382V21.4982C21.8426 21.5582 21.8126 21.6482 21.7826 21.7082C21.7826 21.7382 21.7526 21.7982 21.7226 21.8582C21.6926 21.8882 21.6926 21.9482 21.6626 22.0082C21.6326 22.0682 21.6026 22.1582 21.5726 22.2182C21.5726 22.2182 21.5726 22.2482 21.5426 22.2782C20.8526 23.7182 19.6826 24.8582 18.2426 25.5781L18.1826 25.6081C18.1226 25.6381 18.0326 25.6681 17.9726 25.6981L17.8226 25.7581L17.6726 25.8181C17.6126 25.8481 17.5226 25.8781 17.4626 25.9081H17.4026C15.8727 26.4181 14.2527 26.4181 12.7227 25.9081H12.6627C12.6027 25.8781 12.5127 25.8481 12.4527 25.8181L12.3027 25.7581L12.1527 25.6981C12.0927 25.6681 12.0027 25.6381 11.9427 25.6081L11.8827 25.5781C10.6528 24.9782 9.63278 24.0182 8.91279 22.8482C8.85279 22.7582 8.79279 22.6682 8.73279 22.5782L8.70279 22.5182C8.67279 22.4282 8.61279 22.3682 8.58279 22.2782C8.0428 21.1382 7.80281 19.8782 7.8928 18.6183C7.9828 17.5383 8.3128 16.4883 8.85279 15.5583C8.88279 15.4983 8.94279 15.4083 9.00279 15.3483C9.06279 15.2883 9.06279 15.2283 9.09278 15.1983L9.18278 15.0783C9.27278 14.9283 9.39278 14.8083 9.48278 14.6883L9.54278 14.6283C9.60278 14.5383 9.66278 14.4783 9.75277 14.4183C10.3528 13.7583 11.0728 13.2183 11.9127 12.7984L11.9727 12.7684C12.0327 12.7384 12.1227 12.7084 12.1827 12.6784L12.3327 12.6184C12.3627 12.6184 12.4227 12.5883 12.4827 12.5584C12.5427 12.5284 12.6327 12.4984 12.6927 12.4684H12.7527C14.0427 12.0184 15.4527 11.9584 16.8027 12.2884C16.9227 12.3184 17.0127 12.3484 17.1027 12.3784H17.1627C17.2527 12.4084 17.3427 12.4384 17.4326 12.4684C18.6326 12.8883 19.6826 13.6083 20.5226 14.5983C22.2026 16.3683 22.7126 19.0382 21.8726 21.4382ZM85.6215 17.2083H70.5318V22.9682H76.7117C74.5817 26.2981 70.1418 27.2881 66.7818 25.1581C63.4519 23.0282 62.4619 18.5883 64.5919 15.2583C66.7218 11.9284 71.1618 10.9384 74.5217 13.0683C75.1217 13.4583 75.6617 13.9083 76.1117 14.4483H85.0215C82.4416 6.49845 73.9217 2.17852 65.9719 4.75848C63.0919 5.68846 60.5419 7.48843 58.712 9.85839V4.72848H51.0921L42.8722 16.5483L34.6524 4.72848H27.0325V9.85839C21.9326 3.2585 12.4527 2.08852 5.85284 7.18844C-0.747054 12.2884 -1.94704 21.7982 3.18288 28.3681C8.2828 34.968 17.7926 36.138 24.3925 31.0381C25.3825 30.2581 26.2825 29.3581 27.0625 28.3681V33.498H34.9524V17.5083L42.8722 28.6381L50.7921 17.5083V33.468H58.682V28.3381C63.7819 34.938 73.2617 36.138 79.8616 31.0381C83.5516 28.1881 85.7415 23.7482 85.7415 19.0682C85.7415 18.4683 85.7115 17.8383 85.6215 17.2083ZM105.361 11.7484C105.361 10.9084 105.151 10.0684 104.731 9.34841C104.311 8.62842 103.741 7.99843 103.021 7.57844C102.301 7.12845 101.461 6.91845 100.621 6.91845C99.7813 6.91845 98.9713 7.12845 98.2813 7.57844C95.9714 8.98842 95.2514 11.9884 96.6314 14.2983C97.0513 14.9583 97.5913 15.5283 98.2513 15.9183C98.9713 16.3383 99.7813 16.5783 100.621 16.5783C101.461 16.5783 102.301 16.3683 103.021 15.9183C103.711 15.4983 104.311 14.8683 104.701 14.1483C105.151 13.3683 105.361 12.5584 105.361 11.7484ZM100.651 18.9483C99.3913 18.9483 98.1613 18.6183 97.0813 18.0183C95.9714 17.3883 95.0414 16.5183 94.3814 15.4383C93.7214 14.3283 93.3614 13.0683 93.3614 11.7784C93.3614 9.19841 94.7114 6.82844 96.9013 5.50846C99.1813 4.18849 102.001 4.15849 104.281 5.47847C106.531 6.76845 107.911 9.16841 107.881 11.7784C107.881 13.0383 107.551 14.2983 106.891 15.3783C106.231 16.4583 105.361 17.3583 104.251 18.0183C103.201 18.6183 101.941 18.9483 100.651 18.9483ZM121.831 10.8484C122.161 11.2984 122.311 11.9584 122.311 12.7984V18.6183H124.801V12.3484C124.801 11.3284 124.591 10.4884 124.231 9.7984C123.901 9.16841 123.361 8.65842 122.701 8.29843C122.041 7.96843 121.321 7.81843 120.571 7.81843C119.911 7.81843 119.251 7.93843 118.651 8.20842C118.081 8.47842 117.571 8.92841 117.211 9.4684C116.881 8.95841 116.431 8.53842 115.921 8.26842C115.381 7.99843 114.811 7.84843 114.181 7.84843C113.611 7.84843 113.071 7.93843 112.531 8.17843C112.081 8.38843 111.691 8.68841 111.451 9.10841H111.421V8.23842H109.141V18.6483H111.631V13.3383C111.631 12.1984 111.811 11.3884 112.111 10.9084C112.441 10.4284 112.951 10.1884 113.641 10.1884C114.301 10.1884 114.811 10.4284 115.171 10.9084C115.531 11.3884 115.711 12.0184 115.711 12.8284V18.6783H118.231V12.9784C118.231 12.0184 118.441 11.3284 118.831 10.8784C119.221 10.4284 119.791 10.1884 120.391 10.2184C120.991 10.1884 121.471 10.3984 121.831 10.8484ZM133.111 13.4283V18.6783H135.601V12.5284C135.601 11.3884 135.391 10.4584 134.911 9.7684C134.461 9.07841 133.921 8.59842 133.291 8.32843C132.721 8.05843 132.121 7.90843 131.521 7.90843C130.981 7.90843 130.471 7.99842 129.991 8.20842C129.511 8.44842 129.061 8.77842 128.671 9.16841V8.26842H126.331V18.6783H128.821V12.9784C128.821 12.2884 128.941 11.7184 129.181 11.2984C129.361 10.9384 129.661 10.6384 130.021 10.4284C130.321 10.2784 130.651 10.1884 130.981 10.1884C132.361 10.1584 133.081 11.2684 133.111 13.4283ZM139.591 8.23842V18.6483H137.101V8.23842H139.591ZM139.591 4.75848V7.03844H137.101V4.75848H139.591ZM149.61 18.0483C150.51 17.3883 151.2 16.4883 151.65 15.2883H148.83C148.231 16.2483 147.451 16.7283 146.521 16.7283C145.951 16.7283 145.411 16.5783 144.931 16.3083C144.451 16.0083 144.061 15.6183 143.821 15.1383C143.551 14.6283 143.401 14.0583 143.401 13.4583C143.401 12.8583 143.521 12.3184 143.791 11.7784C144.031 11.2984 144.421 10.8784 144.871 10.6084C145.321 10.3084 145.891 10.1884 146.431 10.1884C146.911 10.1884 147.421 10.3084 147.841 10.5784C148.261 10.8784 148.62 11.2684 148.86 11.7184H151.68C151.32 10.5784 150.6 9.58841 149.64 8.92842C148.711 8.26843 147.571 7.90843 146.431 7.90843C145.441 7.90843 144.481 8.14842 143.641 8.65841C142.801 9.13841 142.111 9.8284 141.631 10.6684C141.151 11.5084 140.881 12.4384 140.881 13.4283C140.881 14.4183 141.121 15.3783 141.631 16.2183C142.111 17.0583 142.801 17.7783 143.641 18.2583C144.481 18.7682 145.441 19.0082 146.431 19.0082C147.511 19.0082 148.62 18.6783 149.61 18.0483ZM160.77 13.4883C160.77 12.9183 160.62 12.3784 160.38 11.8684C160.14 11.3584 159.75 10.9384 159.3 10.6384C158.85 10.3384 158.28 10.1884 157.74 10.1884C157.2 10.1884 156.66 10.3384 156.21 10.6384C155.76 10.9384 155.37 11.3584 155.1 11.8384C154.83 12.3184 154.68 12.8883 154.68 13.4583C154.68 14.0283 154.8 14.5683 155.07 15.0783C155.31 15.5583 155.7 15.9783 156.15 16.2783C156.6 16.5783 157.17 16.7283 157.71 16.6983C158.25 16.6983 158.79 16.5483 159.24 16.2783C159.69 15.9783 160.08 15.5883 160.32 15.1083C160.62 14.5683 160.77 14.0283 160.77 13.4883ZM152.16 13.4583C152.16 12.4984 152.4 11.5384 152.91 10.6684C153.39 9.8284 154.08 9.10841 154.92 8.62842C155.76 8.11843 156.75 7.84843 157.74 7.87843C159.72 7.87843 161.58 8.92841 162.54 10.6684C163.02 11.5084 163.26 12.4684 163.26 13.4283C163.26 14.4183 163.02 15.3783 162.54 16.2483C162.09 17.0883 161.4 17.7783 160.56 18.2583C159.69 18.7682 158.73 19.0082 157.74 19.0082C156.75 19.0082 155.79 18.7682 154.95 18.2583C154.11 17.7783 153.42 17.0583 152.91 16.2183C152.43 15.3783 152.16 14.4183 152.16 13.4583ZM177 10.8484C177.33 11.2984 177.48 11.9584 177.48 12.7984V18.6183H179.97V12.3484C179.97 11.3284 179.76 10.4884 179.4 9.7984C179.04 9.16841 178.53 8.65842 177.87 8.29843C177.21 7.96843 176.49 7.81843 175.74 7.81843C175.08 7.81843 174.42 7.93843 173.82 8.20842C173.25 8.47842 172.74 8.92841 172.38 9.4684C172.05 8.95841 171.6 8.53842 171.09 8.26842C170.55 7.99843 169.98 7.84843 169.35 7.84843C168.78 7.84843 168.24 7.93843 167.7 8.17843C167.25 8.38843 166.86 8.68841 166.62 9.10841H166.59V8.23842H164.31V18.6483H166.8V13.3383C166.8 12.1984 166.98 11.3884 167.28 10.9084C167.61 10.4284 168.12 10.1884 168.81 10.1884C169.47 10.1884 169.98 10.4284 170.34 10.9084C170.7 11.3884 170.88 12.0184 170.88 12.8284V18.6783H173.37V12.9784C173.37 12.0184 173.58 11.3284 173.97 10.8784C174.36 10.4284 174.93 10.1884 175.53 10.2184C176.16 10.1584 176.64 10.3984 177 10.8484ZM105.091 23.7782V33.228H106.171V22.6082H104.521L100.651 31.638L96.7813 22.6082H95.1314V33.228H96.2114V23.7782H96.2414L100.171 33.228H101.071L105.091 23.7782ZM111.511 26.0881C111.031 26.0881 110.551 26.2081 110.131 26.4181C109.711 26.6281 109.321 26.9581 109.051 27.3781C108.751 27.7981 108.571 28.2781 108.481 28.7881H114.601C114.481 28.0381 114.091 27.3481 113.521 26.8681C112.951 26.3581 112.261 26.0881 111.511 26.0881ZM111.511 32.538C112.111 32.538 112.711 32.358 113.221 32.028C113.731 31.728 114.121 31.2481 114.301 30.6781H115.381C115.111 31.4881 114.571 32.178 113.851 32.688C112.561 33.618 110.821 33.708 109.471 32.898C108.181 32.178 107.431 30.7981 107.431 29.3281C107.431 28.6081 107.611 27.8881 108.001 27.2581C108.361 26.6281 108.871 26.1181 109.501 25.7581C110.761 25.0081 112.351 25.0081 113.611 25.7881C114.241 26.1781 114.751 26.7181 115.111 27.3481C115.471 27.9781 115.651 28.6681 115.651 29.3881V29.6881H108.481C108.511 30.1981 108.691 30.6781 108.961 31.0981C109.231 31.518 109.621 31.878 110.071 32.148C110.521 32.388 111.001 32.538 111.511 32.538ZM123.781 29.3281C123.781 28.7581 123.631 28.2181 123.361 27.7081C123.091 27.2281 122.701 26.8081 122.221 26.5381C121.741 26.2381 121.171 26.0881 120.631 26.1181C120.061 26.1181 119.491 26.2681 118.981 26.5381C118.501 26.8081 118.111 27.1981 117.841 27.7081C117.571 28.2181 117.391 28.7881 117.421 29.3581C117.421 29.9281 117.571 30.4681 117.841 30.9781C118.111 31.4581 118.501 31.848 118.981 32.118C119.491 32.388 120.061 32.538 120.631 32.538C121.201 32.538 121.741 32.388 122.221 32.118C122.701 31.848 123.091 31.428 123.361 30.9481C123.631 30.4381 123.811 29.8981 123.781 29.3281ZM123.691 31.878C123.361 32.358 122.911 32.778 122.371 33.018C121.831 33.288 121.231 33.438 120.631 33.438C119.881 33.438 119.131 33.258 118.501 32.898C117.871 32.538 117.331 32.028 116.971 31.398C116.581 30.7681 116.401 30.0481 116.401 29.2981C116.401 28.5781 116.611 27.8281 116.971 27.1981C117.361 26.5681 117.871 26.0581 118.501 25.7281C119.161 25.3681 119.881 25.1881 120.601 25.1881C121.201 25.1881 121.801 25.3381 122.341 25.6081C122.881 25.8781 123.331 26.2681 123.661 26.7481H123.691V22.6382H124.711V33.258H123.691V31.878ZM127.291 25.3981V33.258H126.271V25.3981H127.291ZM127.291 22.6382V24.4382H126.271V22.6382H127.291ZM135.811 29.3281C135.811 28.7581 135.661 28.2181 135.391 27.7081C135.121 27.2281 134.731 26.8081 134.251 26.5381C133.771 26.2381 133.201 26.0881 132.661 26.1181C132.091 26.1181 131.521 26.2681 131.041 26.5381C130.561 26.8081 130.171 27.1981 129.901 27.7081C129.631 28.2181 129.451 28.7881 129.481 29.3581C129.481 29.9281 129.631 30.4681 129.901 30.9781C130.171 31.4581 130.561 31.848 131.041 32.118C131.551 32.388 132.121 32.538 132.691 32.538C133.261 32.538 133.801 32.388 134.281 32.118C134.761 31.848 135.151 31.428 135.421 30.9481C135.691 30.4381 135.841 29.8981 135.811 29.3281ZM135.751 31.878C135.421 32.358 134.971 32.748 134.461 33.018C133.921 33.288 133.321 33.438 132.691 33.438C131.941 33.438 131.191 33.258 130.561 32.898C129.931 32.538 129.391 32.028 129.031 31.398C128.641 30.7681 128.461 30.0481 128.461 29.2981C128.461 28.5781 128.671 27.8281 129.031 27.1981C129.421 26.5681 129.931 26.0581 130.561 25.7281C131.221 25.3681 131.941 25.1881 132.661 25.1881C133.291 25.1881 133.891 25.3381 134.431 25.6081C134.941 25.8781 135.391 26.2681 135.721 26.7781H135.751V25.3981H136.771V33.258H135.751V31.878ZM141.991 28.3681V29.3281H147.931C147.781 29.9281 147.481 30.4981 147.061 30.9481C146.611 31.428 146.101 31.818 145.531 32.058C144.961 32.328 144.331 32.478 143.671 32.478C142.861 32.478 142.051 32.268 141.331 31.878C140.641 31.4881 140.041 30.9181 139.621 30.2281C138.781 28.8181 138.781 27.0481 139.621 25.6381C140.041 24.9482 140.611 24.3782 141.331 23.9882C142.711 23.1782 144.421 23.1782 145.831 23.9282C146.491 24.2582 147.031 24.7982 147.421 25.4281H148.651C148.411 24.8582 148.021 24.3782 147.571 23.9582C147.061 23.4782 146.461 23.0882 145.801 22.8482C143.191 21.7682 140.191 22.7582 138.691 25.1581C138.181 25.9981 137.911 26.9581 137.911 27.9181C137.911 28.9081 138.181 29.8681 138.721 30.7081C139.801 32.388 141.631 33.378 143.611 33.408C144.541 33.408 145.471 33.198 146.311 32.748C147.121 32.328 147.841 31.668 148.321 30.9181C148.83 30.1681 149.13 29.2681 149.19 28.3381H141.991V28.3681ZM150.39 25.3981V33.258H151.41V28.6081C151.41 28.0081 151.62 27.4381 152.01 26.9881C152.4 26.5681 152.94 26.3281 153.66 26.2381V25.1581C153.03 25.1881 152.58 25.3381 152.22 25.5481C151.86 25.7581 151.59 26.1181 151.44 26.5081H151.41V25.3681L150.39 25.3981ZM161.16 29.2681C161.16 28.7281 161.01 28.1881 160.74 27.7081C160.47 27.2281 160.08 26.8381 159.6 26.5381C159.12 26.2381 158.58 26.0881 158.04 26.1181C157.5 26.1181 156.96 26.2681 156.51 26.5681C155.55 27.1681 154.98 28.2481 154.98 29.3881C154.98 30.4981 155.58 31.548 156.54 32.148C156.99 32.418 157.56 32.568 158.1 32.568C158.67 32.568 159.18 32.418 159.66 32.148C160.14 31.848 160.53 31.4581 160.77 30.9781C161.01 30.4081 161.16 29.8381 161.16 29.2681ZM153.93 29.3881C153.93 28.6681 154.11 27.9181 154.5 27.2881C154.86 26.6581 155.37 26.1481 156 25.7581C156.63 25.3981 157.32 25.1881 158.04 25.1881C158.76 25.1881 159.48 25.3981 160.11 25.7581C160.74 26.1181 161.25 26.6281 161.61 27.2581C162.36 28.5481 162.36 30.1081 161.61 31.368C161.25 31.998 160.74 32.508 160.08 32.868C159.45 33.228 158.76 33.438 158.04 33.438C157.32 33.438 156.63 33.228 156 32.868C155.37 32.508 154.86 31.998 154.5 31.368C154.14 30.7681 153.93 30.0781 153.93 29.3881ZM169.23 32.028V33.258H170.19V25.3981H169.17V29.7181C169.17 30.2581 169.08 30.7981 168.84 31.2481C168.63 31.668 168.33 31.998 167.97 32.208C167.58 32.418 167.16 32.538 166.71 32.538C165.12 32.538 164.31 31.608 164.31 29.7781V25.3981H163.29V29.8981C163.29 30.7381 163.44 31.428 163.77 31.938C164.07 32.418 164.49 32.838 165.03 33.078C165.54 33.318 166.11 33.438 166.71 33.438C167.25 33.438 167.76 33.318 168.24 33.078C168.66 32.838 169.02 32.478 169.23 32.028ZM175.77 26.0881C175.23 26.0881 174.69 26.2381 174.21 26.5081C173.73 26.7781 173.34 27.1981 173.07 27.6781C172.5 28.6681 172.5 29.8981 173.07 30.8881C173.34 31.368 173.73 31.758 174.21 32.058C174.69 32.328 175.26 32.478 175.8 32.478C176.37 32.478 176.94 32.328 177.45 32.058C177.93 31.788 178.32 31.398 178.59 30.9181C178.86 30.4381 179.01 29.8681 179.01 29.2981C179.01 28.7281 178.86 28.1581 178.59 27.6481C178.32 27.1681 177.93 26.7481 177.45 26.4781C176.94 26.2381 176.34 26.0881 175.77 26.0881ZM172.68 25.3981V26.7781H172.71C173.04 26.2981 173.52 25.8781 174.03 25.6081C174.57 25.3381 175.17 25.1881 175.77 25.1881C176.52 25.1881 177.27 25.3681 177.9 25.7281C178.53 26.0881 179.04 26.5981 179.43 27.2281C179.82 27.8581 180 28.5781 180 29.2981C180 30.7981 179.22 32.148 177.93 32.868C177.27 33.258 176.52 33.438 175.77 33.438C175.17 33.438 174.57 33.288 174.03 33.018C173.49 32.748 173.04 32.358 172.71 31.848H172.68V35.988H171.66V25.3681L172.68 25.3981Z" fill="#262D3D"/>
</svg>